<?xml version="1.0" encoding="UTF-8" standalone="no"?>
<svg
   version="1.1"
   id="Layer_1"
   x="0px"
   y="0px"
   width="369.12503"
   viewBox="0 0 369.12503 118.14185"
   enable-background="new 0 0 481 483"
   xml:space="preserve"
   height="118.14185"
   xmlns="http://www.w3.org/2000/svg"
   xmlns:svg="http://www.w3.org/2000/svg"><defs
   id="defs12" />












<g
   id="g2"
   transform="translate(9.8903618,3.5709348)"><path
     fill="#EEEADE"
     opacity="1"
     stroke="none"
     d="m 242.16727,37.507077 c 9.54201,-5.99698 19.28213,-7.78804 29.49314,-2.70091 11.24609,5.60281 17.21749,14.93743 18.33678,27.33941 0.47205,5.23039 -2.60864,8.0967 -8.49615,8.13766 -11.27469,0.0785 -22.5503,0.0262 -33.82553,0.0281 -1.3375,2.3e-4 -2.67503,5e-5 -4.00437,5e-5 -0.0884,6.29584 6.20869,13.22591 13.03372,14.54213 6.07547,1.17168 11.94619,0.91679 17.32842,-2.63098 0.91191,-0.6011 1.92955,-1.13058 2.97393,-1.42519 3.0387,-0.8572 5.87364,-0.67145 7.81977,2.26784 1.87032,2.82476 1.0279,5.43535 -0.97293,7.7259 -3.65161,4.18033 -8.66347,5.78991 -13.84839,7.02383 -17.72897,4.219183 -34.81805,-4.69846 -39.90175,-20.83705 -4.57099,-14.51099 0.35899,-30.87308 12.06336,-39.47079 m 2.65323,20.75158 c 9.84723,0 19.69447,0 29.47959,0 0.50361,-6.91113 -7.22132,-12.89843 -14.35873,-13.10174 -8.42598,-0.24 -14.97627,4.17285 -16.3264,11.26454 -0.1013,0.53212 0.38566,1.1762 1.20554,1.8372 z"
     id="path3"
     style="fill:#000000;fill-opacity:1;stroke-width:0.735805" /><path
     fill="#EEEADE"
     opacity="1"
     stroke="none"
     d="m 332.79586,97.338677 c -10.03749,2.872913 -19.22054,1.07215 -27.88549,-3.68199 -2.18426,-1.19842 -4.02335,-3.20038 -5.69496,-5.1174 -2.44571,-2.8048 -2.44672,-6.47736 -0.3529,-8.68549 2.59512,-2.7369 5.49468,-2.97841 8.89998,-0.61758 2.61194,1.81085 5.01339,3.96119 7.74457,5.55621 4.54118,2.65207 9.51089,3.00126 14.57698,1.72093 2.92517,-0.73929 4.68654,-2.65342 4.93585,-5.68492 0.23721,-2.88444 -1.13087,-4.98088 -3.74186,-6.15297 -2.45037,-1.09999 -4.93072,-2.1581 -7.46612,-3.03818 -4.04658,-1.40466 -8.24046,-2.41961 -12.2087,-4.00762 -6.90003,-2.76129 -11.32575,-7.66066 -11.73708,-15.41535 -0.41526,-7.82935 3.30418,-13.35603 9.9824,-17.04004 10.27929,-5.67054 26.48017,-3.58719 33.93643,4.29608 3.26368,3.45057 3.84032,6.99675 1.53687,9.45124 -2.79592,2.97921 -6.65368,2.70928 -10.34853,-0.6324 -4.51051,-4.07931 -9.84929,-5.26143 -15.72608,-4.1835 -2.8906,0.53016 -4.97321,2.05896 -5.36013,5.22576 -0.39496,3.23258 1.0541,5.60535 3.90719,6.78702 3.49592,1.44795 7.1799,2.43637 10.759,3.69066 3.11678,1.09228 6.3059,2.05553 9.28102,3.46105 12.49782,5.90417 14.16301,21.82022 3.09188,30.10803 -2.29679,1.71936 -5.21155,2.61316 -8.13032,3.96046 z"
     id="path4"
     style="fill:#000000;fill-opacity:1;stroke-width:0.735805" /><path
     fill="#EEEADF"
     opacity="1"
     stroke="none"
     d="m 135.13168,96.849897 c -3.25023,-1.95581 -3.94659,-4.79348 -3.93811,-8.03621 0.0324,-12.37253 -0.10819,-24.74711 0.0902,-37.11655 0.0546,-3.4051 -0.95594,-4.40375 -4.31463,-4.28176 -5.95012,0.21613 -8.53621,-1.68273 -8.92013,-5.81799 -0.35804,-3.85658 1.58555,-6.37488 5.79858,-7.09182 2.25478,-0.38369 4.58203,-0.34147 7.40476,-0.52599 0,-2.08379 -0.0656,-4.00675 0.0111,-5.924 0.37486,-9.37432 5.78239,-16.54808 14.96321,-18.3872197 4.77168,-0.95586 9.95863,-0.86741 14.79638,-0.1543 4.2161,0.6214797 5.84714,4.1575197 4.99536,7.9967997 -0.73084,3.29408 -2.93238,4.65123 -6.13489,4.5586 -1.09025,-0.0315 -2.16971,-0.36249 -3.25854,-0.5271 -7.9963,-1.20896 -11.59856,2.15706 -11.01307,10.1141 0.1356,1.84286 0.749,2.64349 2.63787,2.58353 2.56945,-0.0815 5.15196,-0.1235 7.71479,0.0392 4.68212,0.29731 7.32224,2.77961 7.27299,6.61207 -0.0541,4.20784 -2.63941,6.41359 -7.52264,6.61843 -3.23256,0.13563 -7.53649,-0.67156 -9.36442,1.05586 -1.64821,1.55758 -0.67817,5.98788 -0.69388,9.15208 -0.0517,10.41233 0.0795,20.82654 -0.0686,31.23707 -0.0978,6.87666 -3.53075,9.44663 -10.45637,7.89517 z"
     id="path5"
     style="fill:#000000;fill-opacity:1;stroke-width:0.735805" /><path
     fill="#EDE9DD"
     opacity="1"
     stroke="none"
     d="m 201.98737,80.470567 c 0.001,-21.19023 -0.009,-42.0134 0.0124,-62.83655 0.005,-5.09117 1.50936,-7.61463 5.06145,-8.7836597 4.0797,-1.34261 8.086,0.78204 9.07354,4.9599397 0.36095,1.52705 0.43334,3.15037 0.43528,4.73003 0.0281,22.90546 0.0302,45.81093 0.006,68.7164 -0.001,1.57858 -0.0734,3.20287 -0.44198,4.72621 -0.89633,3.70509 -3.4533,5.58799 -7.14656,5.52103 -3.40653,-0.0618 -6.05922,-2.01511 -6.57809,-5.6845 -0.51027,-3.60834 -0.3102,-7.31711 -0.42172,-11.3489 z"
     id="path6"
     style="fill:#000000;fill-opacity:1;stroke-width:0.735805" /><path
     fill="#EEEBE0"
     opacity="1"
     stroke="none"
     d="m 185.95873,49.572607 c -7.3e-4,13.23732 -0.018,26.10725 0.009,38.97708 0.007,3.20394 -0.51516,6.1104 -3.47504,8.00407 -4.39067,2.80901 -10.14661,0.0779 -10.6867,-5.30766 -0.36538,-3.6433 -0.19305,-7.34428 -0.1952,-11.01951 -0.008,-13.23745 -0.0507,-26.4754 0.0578,-39.71204 0.036,-4.39461 3.04565,-7.32426 7.03895,-7.3559 4.021,-0.0319 6.89948,2.84613 7.19818,7.22287 0.0584,0.8547 0.0469,1.71487 0.0497,2.57253 0.007,2.08369 0.003,4.1674 0.003,6.61856 z"
     id="path7"
     style="fill:#000000;fill-opacity:1;stroke-width:0.735805" /><path
     fill="#EDE9DC"
     opacity="1"
     stroke="none"
     d="m 171.16245,19.798347 c -0.051,-7.73604 5.83512,-11.3409097 12.58419,-8.03096 3.0356,1.48872 3.79462,9.28361 1.15383,11.84942 -3.89637,3.7858 -12.30605,1.63543 -13.73802,-3.81846 z"
     id="path8"
     style="fill:#000000;fill-opacity:1;stroke-width:0.735805" /><g
     id="g12"
     transform="matrix(0.58932575,0,0,0.58932575,-18.354853,-57.456745)"><path
       fill="#220e5a"
       opacity="1"
       stroke="none"
       d="m 47.982975,248.06148 c -5.54036,-3.39109 -12.682892,-5.47689 -15.422546,-10.14608 -2.63556,-4.49178 -0.779908,-11.6561 -0.786988,-17.64627 -0.02797,-23.66227 0.06575,-47.32509 -0.0907,-70.98635 -0.02579,-3.90262 0.95607,-6.2323 4.585083,-8.28645 24.487732,-13.861 48.838852,-27.96471 73.153476,-42.128418 2.90254,-1.690796 5.06286,-1.912804 8.10058,-0.13858 24.5802,14.356428 49.24634,28.566788 73.97443,42.667148 2.81766,1.60667 3.94434,3.28067 3.9281,6.59623 -0.14075,28.82732 -0.13638,57.65589 -0.003,86.48326 0.0145,3.13329 -1.12015,4.71117 -3.70804,6.19776 -24.68289,14.17892 -49.33008,28.42114 -73.88712,42.81643 -3.1371,1.83896 -5.42515,1.83747 -8.56646,-0.005 C 89.013599,271.61361 68.638706,259.96143 47.982975,248.06148 m 79.507995,-73.71969 c -2.7e-4,14.16286 -0.12619,28.32764 0.0885,42.48723 0.053,3.4916 -1.1651,5.31323 -4.11127,6.98639 -15.05638,8.55073 -29.99345,17.31173 -44.961315,26.018 -1.484238,0.86334 -2.894394,1.85404 -4.870377,3.12831 13.017563,7.50426 25.225586,14.63205 37.569912,21.51538 1.20432,0.67154 3.54969,0.36527 4.85878,-0.37863 22.72652,-12.91443 45.40013,-25.92312 67.97741,-39.0962 1.47314,-0.85953 2.93972,-3.20742 2.95156,-4.87333 0.1846,-25.9918 0.17603,-51.98564 0.012,-77.97772 -0.01,-1.57397 -1.30304,-3.81009 -2.66199,-4.60544 -22.70377,-13.28775 -45.49805,-26.42152 -68.34357,-39.46449 -1.17018,-0.66808 -3.32327,-0.81637 -4.44362,-0.18545 -12.31695,6.93629 -24.519633,14.07547 -37.202128,21.41951 14.139099,8.17364 27.483828,16.74932 41.610458,23.74633 9.14702,4.53058 13.66936,10.1037 11.52565,21.28011 M 109.84392,159.7835 c -13.558668,-7.82657 -27.096281,-15.69023 -40.706953,-23.42531 -1.442871,-0.81999 -3.764939,-1.75375 -4.912476,-1.158 -6.514831,3.38226 -12.796417,7.2138 -19.592773,11.1443 15.931564,9.24808 31.163177,18.15799 46.483062,26.91341 2.455872,1.40356 3.512604,2.95248 3.438858,5.85084 -0.199142,7.82782 -0.207626,15.66774 0.0028,23.49495 0.07878,2.93054 -1.054031,4.43776 -3.482971,5.82716 -14.165817,8.10289 -28.249603,16.34931 -42.347992,24.56974 -1.353638,0.78926 -2.617249,1.73291 -4.520294,3.00415 6.702942,3.88553 12.653122,7.49379 18.792953,10.7437 1.075653,0.56935 3.174927,0.0356 4.417664,-0.66732 16.231186,-9.17999 32.368637,-18.52572 48.600202,-27.70504 2.31978,-1.31186 3.21367,-2.77334 3.18047,-5.48136 -0.15317,-12.49737 -0.55655,-25.02402 0.11428,-37.48715 0.40696,-7.56065 -1.28103,-12.82488 -9.46684,-15.62407 m -69.690335,51.5451 c 0,5.18755 0,10.3751 0,16.52355 11.253495,-6.48233 21.334687,-12.24027 31.363755,-18.08762 4.854233,-2.83021 11.476852,-4.77432 13.888931,-9.04533 2.435471,-4.31249 0.492081,-11.01587 0.782761,-16.65555 0.15039,-2.91752 -0.995881,-4.4389 -3.434204,-5.81854 -12.880478,-7.28787 -25.66536,-14.74455 -38.502793,-22.10886 -1.073593,-0.61584 -2.290985,-0.98106 -4.098465,-1.7377 0,19.08695 0,37.50951 1.5e-5,56.93005 z"
       id="path2"
       style="fill:#000000;fill-opacity:1" /><path
       fill="#ce9136"
       opacity="1"
       stroke="none"
       d="m 127.49082,173.84454 c 2.14386,-10.67916 -2.37848,-16.25228 -11.5255,-20.78286 -14.12663,-6.99701 -27.471359,-15.57269 -41.610458,-23.74633 12.682495,-7.34404 24.885178,-14.48322 37.202128,-21.41951 1.12035,-0.63092 3.27344,-0.48263 4.44362,0.18545 22.84552,13.04297 45.6398,26.17674 68.34357,39.46449 1.35895,0.79535 2.65204,3.03147 2.66199,4.60544 0.164,25.99208 0.17257,51.98592 -0.012,77.97772 -0.0118,1.66591 -1.47842,4.0138 -2.95156,4.87333 -22.57728,13.17308 -45.25089,26.18177 -67.97741,39.0962 -1.30909,0.7439 -3.65446,1.05017 -4.85878,0.37863 -12.344326,-6.88333 -24.552349,-14.01112 -37.569912,-21.51538 1.975983,-1.27427 3.386139,-2.26497 4.870377,-3.12831 14.967865,-8.70627 29.904935,-17.46727 44.961315,-26.018 2.94617,-1.67316 4.16425,-3.49479 4.11127,-6.98639 -0.21466,-14.15959 -0.0887,-28.32437 -0.0886,-42.98448 z"
       id="path9"
       style="fill:#ffffff;fill-opacity:1" /><path
       fill="#cd9036"
       opacity="1"
       stroke="none"
       d="m 110.16745,159.95629 c 7.86228,2.6264 9.55027,7.89063 9.14331,15.45128 -0.67083,12.46313 -0.26745,24.98978 -0.11428,37.48715 0.0332,2.70802 -0.86069,4.1695 -3.18047,5.48136 -16.231567,9.17932 -32.369018,18.52505 -48.600204,27.70504 -1.242737,0.70288 -3.342011,1.23667 -4.417664,0.66732 -6.139831,-3.24991 -12.090011,-6.85817 -18.792953,-10.7437 1.903045,-1.27124 3.166656,-2.21489 4.520294,-3.00415 14.098389,-8.22043 28.182175,-16.46685 42.347992,-24.56974 2.42894,-1.3894 3.561752,-2.89662 3.482971,-5.82716 -0.210434,-7.82721 -0.20195,-15.66713 -0.0028,-23.49495 0.07375,-2.89836 -0.982986,-4.44728 -3.438858,-5.85084 -15.319885,-8.75542 -30.551498,-17.66533 -46.483062,-26.91341 6.796356,-3.9305 13.077942,-7.76204 19.592773,-11.1443 1.147537,-0.59575 3.469605,0.33801 4.912476,1.158 13.610672,7.73508 27.148285,15.59874 41.030485,23.5981 z"
       id="path10"
       style="fill:#ffffff;fill-opacity:1" /><path
       fill="#ce9136"
       opacity="1"
       stroke="none"
       d="m 40.153568,210.82961 c 0,-18.92155 0,-37.34411 0,-56.43106 1.80748,0.75664 3.024872,1.12186 4.098465,1.7377 12.837433,7.36431 25.622315,14.82099 38.502793,22.10886 2.438323,1.37964 3.584594,2.90102 3.434204,5.81854 -0.29068,5.63968 1.65271,12.34306 -0.782761,16.65555 -2.412079,4.27101 -9.034698,6.21512 -13.888931,9.04533 -10.029068,5.84735 -20.11026,11.60529 -31.363755,18.08762 0,-6.14845 0,-11.336 -1.5e-5,-17.02254 z"
       id="path11"
       style="fill:#ffffff;fill-opacity:1" /></g></g></svg>
